HIERARCHY
ROOT Hips
{
  OFFSET 40.9192 92.6879 18.85
  CHANNELS 6 Xposition Yposition Zposition Zrotation Xrotation Yrotation
  JOINT LeftUpLeg
  {
    OFFSET 8.64259 1.95398 -2.38835
    CHANNELS 3 Zrotation Xrotation Yrotation
    JOINT LeftLeg
    {
      OFFSET 43.7702 0 0
      CHANNELS 3 Zrotation Xrotation Yrotation
      JOINT LeftFoot
      {
        OFFSET 40.6238 0 0
        CHANNELS 3 Zrotation Xrotation Yrotation
        JOINT LeftToeBase
        {
          OFFSET 12.7242 0 0
          CHANNELS 3 Zrotation Xrotation Yrotation
          End Site
          {
            OFFSET 0 0 0
          }
        }
      }
    }
  }
  JOINT RightUpLeg
  {
    OFFSET -8.2249 1.95398 -2.59336
    CHANNELS 3 Zrotation Xrotation Yrotation
    JOINT RightLeg
    {
      OFFSET 43.5653 0 0
      CHANNELS 3 Zrotation Xrotation Yrotation
      JOINT RightFoot
      {
        OFFSET 40.6238 0 0
        CHANNELS 3 Zrotation Xrotation Yrotation
        JOINT RightToeBase
        {
          OFFSET 12.7242 0 0
          CHANNELS 3 Zrotation Xrotation Yrotation
          End Site
          {
            OFFSET 0 0 0
          }
        }
      }
    }
  }
  JOINT Spine
  {
    OFFSET 0.165834 0.87714 6.61349
    CHANNELS 3 Zrotation Xrotation Yrotation
    JOINT Spine1
    {
      OFFSET 7.38963 1.71661e-005 0
      CHANNELS 3 Zrotation Xrotation Yrotation
      JOINT Spine2
      {
        OFFSET 11.9445 1.14441e-005 0
        CHANNELS 3 Zrotation Xrotation Yrotation
        JOINT Spine3
        {
          OFFSET 14.7254 4.19617e-005 0
          CHANNELS 3 Zrotation Xrotation Yrotation
          JOINT Spine4
          {
            OFFSET 10.9679 0 0
            CHANNELS 3 Zrotation Xrotation Yrotation
            JOINT RightShoulder
            {
              OFFSET 2.46616 -1.6653 3.69651
              CHANNELS 3 Zrotation Xrotation Yrotation
              JOINT RightArm
              {
                OFFSET 13.0012 0 0
                CHANNELS 3 Zrotation Xrotation Yrotation
                JOINT RightForeArm
                {
                  OFFSET 28.7848 1.52588e-005 0
                  CHANNELS 3 Zrotation Xrotation Yrotation
                  JOINT RightHand
                  {
                    OFFSET 26.5688 1.52588e-005 0
                    CHANNELS 3 Zrotation Xrotation Yrotation
                    End Site
                    {
                      OFFSET 0 0 0
                    }
                  }
                }
              }
            }
            JOINT LeftShoulder
            {
              OFFSET 2.38034 -1.29275 -3.7523
              CHANNELS 3 Zrotation Xrotation Yrotation
              JOINT LeftArm
              {
                OFFSET 16.3182 6.10351e-005 0
                CHANNELS 3 Zrotation Xrotation Yrotation
                JOINT LeftForeArm
                {
                  OFFSET 27.0901 0 0
                  CHANNELS 3 Zrotation Xrotation Yrotation
                  JOINT LeftHand
                  {
                    OFFSET 24.5451 1.52588e-005 0
                    CHANNELS 3 Zrotation Xrotation Yrotation
                    End Site
                    {
                      OFFSET 0 0 0
                    }
                  }
                }
              }
            }
            JOINT Neck
            {
              OFFSET 5.0226 -0.0266342 0
              CHANNELS 3 Zrotation Xrotation Yrotation
              JOINT Head
              {
                OFFSET 6.69363 2.86102e-005 0
                CHANNELS 3 Zrotation Xrotation Yrotation
                End Site
                {
                  OFFSET 0 0 0
                }
              }
            }
          }
        }
      }
    }
  }
}
MOTION
Frames:	12
Frame Time:	0.0416667
18.7187 86.0654 -3.34391 -76.2842 -27.9339 -94.1431 -168.908 4.52299 104.822 -25.0716 15.0438 2.03198 37.104 -11.2656 -10.4202 41.1517 11.6766 22.0484 165.822 53.5929 95.9535 -52.7263 5.10993 5.63796 74.0381 -5.06438 -2.4498 48.7271 0.0783262 -8.18424 -0.230154 8.5832 -88.8231 9.70037 0.0734588 2.32661 -1.97265 0.175725 2.32111 -24.4919 -0.628988 2.24122 -4.47926 -0.629005 2.2412 91.4739 -47.5471 -99.0786 24.4452 -15.5021 26.1323 -23.4022 -33.8369 -59.7186 -5.16434 -0.660995 -0.160254 -93.7269 -43.7328 71.3509 -15.8416 0.540441 18.5199 20.1231 -0.824838 -83.1199 21.7824 1.93809 5.08768 8.81374 -11.2 9.80357 9.54832 -14.1935 -11.3334 
9.21306 86.4819 -0.938425 -75.7211 -23.4454 -98.532 -172.256 0.861179 99.0421 -29.2518 18.8745 2.59366 35.5736 -12.7617 -7.62687 30.1071 -0.363232 15.1365 167.404 51.5014 94.0272 -56.334 7.08537 4.44333 77.2992 -6.45037 -2.95047 36.3321 0.311883 -3.32311 -0.22033 8.30223 -88.8663 10.2635 0.0791745 2.24604 -1.40933 0.177901 2.24038 -23.9298 -0.599359 2.16609 -3.91714 -0.59937 2.16607 91.8703 -49.0915 -98.1356 19.3072 -13.0731 21.1094 -23.8433 -31.2663 -60.0666 -8.6928 -0.600118 -0.827631 -94.2068 -44.615 70.8736 -21.9806 7.49943 22.1641 16.1191 3.43698 -70.6527 20.5537 1.58212 3.9048 7.18005 -10.0121 11.9865 10.6365 -12.9714 -8.08984 
0.421984 86.0688 1.07287 -74.99 -17.3229 -99.6897 -172.055 5.83324 96.6902 -46.9661 18.6359 1.14729 39.7058 -10.9872 -6.15059 32.0303 1.71896 13.9061 169.631 46.2418 95.4618 -58.7833 6.47832 3.32909 83.7438 -8.72339 -3.4735 28.4117 0.146232 -2.27232 0.125292 8.17884 -89.1726 10.5094 0.629447 1.58831 -1.16237 0.698751 1.55909 -23.6898 0.123085 1.70403 -3.67718 0.12305 1.70402 92.7278 -48.9007 -96.8337 15.4365 -12.3899 13.4278 -24.4245 -28.5606 -62.9614 -13.6573 -0.696013 -0.00277932 -94.5439 -45.8804 70.7442 -28.6444 13.2694 24.5853 15.2199 8.1173 -59.4461 15.4935 1.03824 2.73241 9.4675 -8.60393 12.1122 9.78759 -11.2742 -4.00261 
-7.91099 86.1546 2.5074 -74.9345 -10.6433 -99.8032 -169.958 13.9212 95.6253 -63.432 18.9713 -0.533717 40.3248 -10.8001 -6.74623 34.0192 3.77038 12.2361 173.064 38.574 96.9324 -57.2153 7.19433 1.57083 87.4583 -10.8277 -3.92779 31.2272 0.204598 -1.90991 0.597188 8.25305 -89.3867 10.3598 1.47052 1.09019 -1.31068 1.51708 1.0244 -23.8462 1.07496 1.48173 -3.83354 1.07492 1.48171 92.4192 -47.5919 -97.5722 14.6133 -11.5779 4.6512 -26.2555 -25.2551 -67.6619 -17.9445 -0.866303 0.825907 -94.1362 -45.6995 71.3185 -35.6145 17.4855 26.3634 12.4014 13.2438 -49.4274 8.49623 0.584284 2.71459 11.2303 -7.57958 10.3633 11.8279 -9.56119 -0.0581004 
-16.0471 86.6292 3.41137 -74.1395 -4.29129 -99.8821 -167.497 24.7214 94.5707 -75.69 20.818 -1.33765 41.7178 -10.4419 -3.15454 36.869 6.47333 7.8921 175.824 30.9067 96.9423 -53.5247 4.3047 0.0387634 88.0393 -11.8054 -4.20422 35.606 0.352926 -1.73641 1.16659 8.24286 -89.5269 10.3812 2.54072 0.717855 -1.28738 2.56984 0.605259 -23.837 2.20747 1.44855 -3.82435 2.20746 1.44854 92.0331 -44.4134 -98.8623 16.8325 -11.4056 -1.95615 -30.2966 -18.371 -75.5791 -20.7605 -0.723534 -0.192269 -93.5328 -46.1927 72.3987 -41.0512 21.1538 28.6143 11.247 18.5879 -44.2276 -2.50385 -0.0737523 1.97428 14.4794 -6.22548 11.2617 8.96041 -8.5664 1.18747 
-24.9755 87.92 3.63353 -73.3199 -1.46576 -101.177 -167.118 35.2767 92.1839 -80.2022 17.9734 -1.14189 43.8778 -8.99696 -2.99686 34.0545 3.87682 9.86385 175.808 22.016 94.419 -46.4799 -0.383298 -0.472358 86.0832 -11.2366 -4.2276 38.7221 0.481836 -0.537006 1.48665 8.05788 -89.4873 10.7512 3.1969 0.724626 -0.915944 3.2257 0.583083 -23.4756 2.83124 1.65259 -3.46293 2.83125 1.65258 92.5776 -41.4578 -98.6028 20.1959 -12.063 -6.63635 -34.35 -11.1312 -84.2608 -22.0809 -0.677207 -0.470936 -92.9332 -45.566 73.1454 -47.4417 23.1994 34.4337 16.9966 24.0907 -48.3992 -12.5433 -0.491684 -0.0685661 13.4876 -6.26304 10.859 9.14779 -8.20207 3.08503 
-34.7085 90.4829 3.39484 -73.9254 0.897022 -102.195 -167.591 41.0432 90.6309 -74.9368 16.3228 -1.50739 45.4958 -8.60018 -1.21363 32.0972 1.97092 11.0868 175.968 11.9615 91.7819 -37.9648 -8.18113 -2.16352 75.9685 -7.43474 -3.56484 41.4477 0.606465 -0.347371 1.74653 8.01954 -89.3614 10.8228 3.77244 0.918492 -0.842848 3.8092 0.751326 -23.4113 3.32188 2.01085 -3.39868 3.32187 2.01083 93.2211 -39.9319 -97.8295 21.6902 -14.1288 -10.2908 -37.2588 -3.9767 -92.5954 -23.8773 -1.05118 1.13328 -92.4118 -43.6606 73.4176 -54.3242 23.7179 41.9062 23.1681 23.0021 -56.5357 -16.926 -0.593197 -0.408757 13.3235 -6.74678 9.9073 7.99528 -8.44355 3.34255 
-45.0001 93.589 3.41465 -74.2229 2.20311 -102.295 -168.634 43.0396 89.2857 -61.6102 13.4726 -2.31866 45.9623 -9.02644 -3.27779 30.4181 0.133874 13.4886 174.648 4.29897 88.8059 -29.0138 -15.2259 -2.82126 53.7366 0.871646 0.817261 48.0558 1.2398 2.62583 1.89949 7.95991 -89.2903 10.9394 4.11 1.02259 -0.725285 4.15101 0.840401 -23.2997 3.61249 2.21186 -3.2871 3.61249 2.21186 93.5042 -39.1227 -97.5067 22.3377 -15.4133 -10.8807 -38.1268 3.16609 -99.5075 -24.0664 -1.1438 1.47931 -91.9792 -41.5452 73.4975 -59.9688 24.5093 47.0641 21.4367 17.897 -59.6152 -16.0006 -0.172785 -3.68144 14.3017 -7.10121 9.904 6.36017 -9.07993 1.61838 
-55.5021 95.8392 3.80989 -74.154 3.60653 -102.091 -168.519 41.892 87.7754 -42.1651 16.4001 -4.57337 43.0125 -11.4203 -6.03377 31.4921 1.2349 13.1727 173.759 0.145909 86.7234 -26.3004 -21.1357 -4.29421 40.072 5.90385 5.77989 38.2547 0.500656 -2.14504 2.06176 7.88286 -89.3229 11.0955 4.41819 0.91995 -0.568114 4.45441 0.724226 -23.151 3.9372 2.20705 -3.13831 3.9372 2.20705 93.9634 -37.4065 -97.0534 24.2184 -15.615 -8.3347 -38.6055 8.18844 -104.061 -27.1096 -1.36804 2.05832 -91.9278 -41.083 73.4448 -62.8181 24.9776 49.9786 18.6303 12.5318 -62.0708 -18.1087 0.087988 -5.68418 15.0361 -6.38077 10.9039 5.2614 -8.73937 1.131 
-66.2183 97.4117 4.33198 -74.1714 5.35066 -100.649 -168.668 38.2591 87.4027 -19.9437 20.0987 -6.98272 40.7358 -12.7558 -8.70336 33.2038 3.0192 10.9357 175.168 -1.82121 86.7352 -31.0784 -22.2119 -6.52215 38.8161 6.4301 6.4818 28.7964 0.348866 -6.11214 2.22477 7.77318 -89.5037 11.3239 4.65844 0.524348 -0.338711 4.67703 0.318369 -22.932 4.28509 1.90263 -2.91941 4.28513 1.90265 94.2366 -37.3619 -96.5677 24.3993 -13.9961 -5.08657 -35.6329 7.94851 -104.517 -30.3611 -1.30679 1.27113 -91.4895 -41.587 74.3115 -63.9051 24.6784 50.502 18.2297 9.77438 -64.375 -17.9759 0.222752 -6.6654 14.6816 -5.96805 11.9986 4.89011 -8.69533 -0.254216 
-76.3638 97.7874 4.92744 -76.0272 6.88377 -97.7519 -169.166 35.1931 88.3782 -8.88744 14.2327 -7.91031 41.4373 -12.3656 -11.0654 37.308 6.92478 10.3999 177.273 -2.12575 88.4305 -41.3328 -15.24 -6.59057 41.4215 4.86093 4.72022 27.8364 0.300891 -4.77857 2.26268 7.77299 -89.8507 11.3401 4.57226 -0.160407 -0.322804 4.56079 -0.361921 -22.9196 4.40867 1.22391 -2.90698 4.40866 1.2239 94.2391 -38.6305 -96.3003 23.6236 -10.739 -1.64538 -31.9201 3.88169 -100.595 -30.6899 -1.19802 0.667147 -90.9353 -42.8725 75.5656 -62.37 22.9003 48.7796 18.3185 9.00101 -64.8922 -15.7483 0.0777891 -5.76588 13.6373 -5.32248 11.7874 5.48833 -7.96331 -0.760319 
-86.2739 97.0632 5.35713 -78.9996 6.2613 -96.3323 -168.511 31.4362 86.5387 -6.40136 10.8389 -9.27411 40.5222 -12.2566 -13.2333 36.4762 6.1529 11.6739 177.954 -0.214417 88.6437 -54.777 -8.38024 -5.90325 40.8521 4.40217 4.3599 24.8471 0.298158 -5.00953 1.99199 7.89891 -90.0417 11.0897 3.94585 -0.464719 -0.575439 3.92156 -0.638206 -23.1578 3.90279 0.74452 -3.14516 3.9028 0.744527 94.0753 -41.0189 -96.1179 21.8284 -7.35562 2.11615 -28.6104 -1.66191 -94.3705 -32.2612 -1.16888 0.300737 -90.772 -44.6937 76.3017 -58.4954 21.2736 45.1249 20.208 10.0465 -64.7037 -13.4124 -0.089607 -4.37933 11.8643 -4.83664 11.2279 6.95556 -7.22288 -0.891695 
